<svg width="105" height="23" viewBox="0 0 105 23" fill="none" xmlns="http://www.w3.org/2000/svg">
<rect x="47" width="23" height="5" transform="rotate(90 47 0)" fill="white"/>
<path d="M61.9834 19.9092L57.9023 22.9639L55 19.0859V10.5791L61.9834 19.9092ZM51 5.23535V13.7422L43 3.05469L47.0811 0L51 5.23535Z" fill="white"/>
<rect x="63" width="23" height="5" transform="rotate(90 63 0)" fill="white"/>
<rect x="23" width="15" height="5" fill="white"/>
<rect x="23" y="18" width="15" height="5" fill="white"/>
<rect x="23" y="9" width="15" height="5" fill="white"/>
<rect x="67" width="15" height="5" fill="white"/>
<rect x="67" y="18" width="15" height="5" fill="white"/>
<rect x="67" y="9" width="15" height="5" fill="white"/>
<rect width="19" height="5" fill="white"/>
<rect x="7" y="23" width="23" height="5" transform="rotate(-90 7 23)" fill="white"/>
<rect x="86" width="19" height="5" fill="white"/>
<rect x="93" y="23" width="23" height="5" transform="rotate(-90 93 23)" fill="white"/>
</svg>
